<svg xmlns="http://www.w3.org/2000/svg" width="292.01" height="35" viewBox="0 0 292.01 35"><rect class="svg__rect" x="0" y="0" width="127.25" height="35" fill="#31C4F3"/><rect class="svg__rect" x="125.25" y="0" width="166.76" height="35" fill="#389AD5"/><path class="svg__text" d="M15.70 22L14.22 22L14.22 13.47L17.48 13.47Q18.91 13.47 19.75 14.21Q20.59 14.96 20.59 16.18L20.59 16.18Q20.59 17.44 19.77 18.13Q18.95 18.83 17.46 18.83L17.46 18.83L15.70 18.83L15.70 22ZM15.70 14.66L15.70 17.64L17.48 17.64Q18.27 17.64 18.69 17.27Q19.10 16.90 19.10 16.19L19.10 16.19Q19.10 15.50 18.68 15.09Q18.26 14.68 17.52 14.66L17.52 14.66L15.70 14.66ZM24.61 18.00L24.61 18.00L24.61 17.52Q24.61 16.28 25.05 15.32Q25.49 14.37 26.30 13.86Q27.10 13.35 28.14 13.35Q29.19 13.35 29.99 13.85Q30.80 14.35 31.24 15.29Q31.68 16.23 31.68 17.48L31.68 17.48L31.68 17.96Q31.68 19.21 31.25 20.16Q30.82 21.10 30.01 21.61Q29.21 22.12 28.16 22.12L28.16 22.12Q27.12 22.12 26.31 21.61Q25.50 21.10 25.05 20.17Q24.61 19.23 24.61 18.00ZM26.09 17.46L26.09 17.96Q26.09 19.36 26.64 20.13Q27.18 20.90 28.16 20.90L28.16 20.90Q29.14 20.90 29.67 20.15Q30.20 19.40 30.20 17.96L30.20 17.96L30.20 17.51Q30.20 16.09 29.67 15.34Q29.13 14.58 28.14 14.58L28.14 14.58Q27.18 14.58 26.64 15.33Q26.10 16.09 26.09 17.46L26.09 17.46ZM37.53 22L35.56 13.47L37.03 13.47L38.36 19.88L39.99 13.47L41.23 13.47L42.84 19.89L44.15 13.47L45.62 13.47L43.65 22L42.24 22L40.61 15.77L38.96 22L37.53 22ZM55.27 22L49.70 22L49.70 13.47L55.23 13.47L55.23 14.66L51.18 14.66L51.18 17.02L54.68 17.02L54.68 18.19L51.18 18.19L51.18 20.82L55.27 20.82L55.27 22ZM60.95 22L59.47 22L59.47 13.47L62.47 13.47Q63.95 13.47 64.75 14.13Q65.55 14.79 65.55 16.05L65.55 16.05Q65.55 16.90 65.14 17.48Q64.72 18.06 63.99 18.37L63.99 18.37L65.90 21.92L65.90 22L64.31 22L62.60 18.71L60.95 18.71L60.95 22ZM60.95 14.66L60.95 17.52L62.48 17.52Q63.23 17.52 63.65 17.15Q64.07 16.77 64.07 16.11L64.07 16.11Q64.07 15.43 63.68 15.05Q63.29 14.68 62.52 14.66L62.52 14.66L60.95 14.66ZM75.52 22L69.95 22L69.95 13.47L75.48 13.47L75.48 14.66L71.43 14.66L71.43 17.02L74.93 17.02L74.93 18.19L71.43 18.19L71.43 20.82L75.52 20.82L75.52 22ZM82.17 22L79.72 22L79.72 13.47L82.24 13.47Q83.37 13.47 84.25 13.97Q85.12 14.48 85.60 15.40Q86.08 16.33 86.08 17.52L86.08 17.52L86.08 17.95Q86.08 19.16 85.60 20.08Q85.12 21.00 84.22 21.50Q83.33 22 82.17 22L82.17 22ZM81.20 14.66L81.20 20.82L82.17 20.82Q83.33 20.82 83.96 20.09Q84.58 19.36 84.59 17.99L84.59 17.99L84.59 17.52Q84.59 16.13 83.99 15.40Q83.39 14.66 82.24 14.66L82.24 14.66L81.20 14.66ZM99.64 22L96.52 22L96.52 13.47L99.45 13.47Q100.89 13.47 101.65 14.05Q102.41 14.63 102.41 15.78L102.41 15.78Q102.41 16.36 102.09 16.83Q101.77 17.30 101.16 17.56L101.16 17.56Q101.86 17.75 102.23 18.26Q102.61 18.78 102.61 19.51L102.61 19.51Q102.61 20.71 101.84 21.36Q101.07 22 99.64 22L99.64 22ZM98.01 18.15L98.01 20.82L99.65 20.82Q100.35 20.82 100.74 20.47Q101.14 20.13 101.14 19.51L101.14 19.51Q101.14 18.18 99.78 18.15L99.78 18.15L98.01 18.15ZM98.01 14.66L98.01 17.06L99.46 17.06Q100.15 17.06 100.54 16.75Q100.93 16.43 100.93 15.86L100.93 15.86Q100.93 15.23 100.57 14.95Q100.21 14.66 99.45 14.66L99.45 14.66L98.01 14.66ZM109.12 18.86L106.26 13.47L107.90 13.47L109.87 17.51L111.83 13.47L113.47 13.47L110.61 18.86L110.61 22L109.12 22L109.12 18.86Z" fill="#FFFFFF"/><path class="svg__text" d="M139.01 17.80L139.01 17.80Q139.01 16.54 139.61 15.54Q140.21 14.55 141.26 13.99Q142.31 13.43 143.63 13.43L143.63 13.43Q144.78 13.43 145.70 13.84Q146.63 14.25 147.24 15.02L147.24 15.02L145.73 16.39Q144.92 15.40 143.75 15.40L143.75 15.40Q143.06 15.40 142.53 15.70Q142.00 16 141.70 16.54Q141.41 17.09 141.41 17.80L141.41 17.80Q141.41 18.51 141.70 19.05Q142.00 19.60 142.53 19.90Q143.06 20.20 143.75 20.20L143.75 20.20Q144.92 20.20 145.73 19.22L145.73 19.22L147.24 20.58Q146.63 21.35 145.71 21.76Q144.78 22.17 143.63 22.17L143.63 22.17Q142.31 22.17 141.26 21.61Q140.21 21.05 139.61 20.05Q139.01 19.06 139.01 17.80ZM151.35 17.80L151.35 17.80Q151.35 16.55 151.95 15.55Q152.56 14.56 153.62 14.00Q154.68 13.43 156.01 13.43L156.01 13.43Q157.34 13.43 158.41 14.00Q159.47 14.56 160.08 15.55Q160.68 16.55 160.68 17.80L160.68 17.80Q160.68 19.05 160.08 20.04Q159.47 21.04 158.41 21.60Q157.35 22.17 156.01 22.17L156.01 22.17Q154.68 22.17 153.62 21.60Q152.56 21.04 151.95 20.04Q151.35 19.05 151.35 17.80ZM153.75 17.80L153.75 17.80Q153.75 18.51 154.05 19.05Q154.35 19.60 154.87 19.90Q155.38 20.20 156.01 20.20L156.01 20.20Q156.65 20.20 157.17 19.90Q157.68 19.60 157.98 19.05Q158.28 18.51 158.28 17.80L158.28 17.80Q158.28 17.09 157.98 16.54Q157.68 16 157.17 15.70Q156.65 15.40 156.01 15.40L156.01 15.40Q155.38 15.40 154.86 15.70Q154.35 16 154.05 16.54Q153.75 17.09 153.75 17.80ZM167.79 22L165.41 22L165.41 13.60L172.00 13.60L172.00 15.44L167.79 15.44L167.79 17.28L171.50 17.28L171.50 19.12L167.79 19.12L167.79 22ZM178.98 22L176.60 22L176.60 13.60L183.19 13.60L183.19 15.44L178.98 15.44L178.98 17.28L182.69 17.28L182.69 19.12L178.98 19.12L178.98 22ZM194.53 22L187.78 22L187.78 13.60L194.38 13.60L194.38 15.44L190.14 15.44L190.14 16.85L193.87 16.85L193.87 18.63L190.14 18.63L190.14 20.17L194.53 20.17L194.53 22ZM206.08 22L199.33 22L199.33 13.60L205.92 13.60L205.92 15.44L201.69 15.44L201.69 16.85L205.42 16.85L205.42 18.63L201.69 18.63L201.69 20.17L206.08 20.17L206.08 22ZM217.39 19.80L217.39 19.80Q217.39 19.01 217.81 18.42Q218.23 17.82 219.14 17.33L219.14 17.33Q218.33 16.52 218.33 15.64L218.33 15.64Q218.33 15.00 218.68 14.51Q219.03 14.02 219.67 13.75Q220.31 13.48 221.16 13.48L221.16 13.48Q222.32 13.48 223.04 14.03Q223.75 14.57 223.75 15.50L223.75 15.50Q223.75 16.15 223.37 16.65Q222.99 17.15 222.19 17.59L222.19 17.59L223.41 18.69Q223.65 18.16 223.78 17.49L223.78 17.49L225.62 18.04Q225.38 19.12 224.84 19.95L224.84 19.95L225.73 20.74L224.50 22.15L223.56 21.30Q222.97 21.72 222.25 21.95Q221.53 22.17 220.74 22.17L220.74 22.17Q219.79 22.17 219.02 21.86Q218.25 21.55 217.82 21.02Q217.39 20.48 217.39 19.80ZM219.62 19.55L219.62 19.55Q219.62 19.94 219.97 20.18Q220.31 20.43 220.91 20.43L220.91 20.43Q221.60 20.42 222.19 20.08L222.19 20.08L220.37 18.47Q219.97 18.71 219.80 18.97Q219.62 19.23 219.62 19.55ZM220.41 15.60L220.41 15.60Q220.41 15.81 220.53 15.99Q220.64 16.18 220.95 16.48L220.95 16.48Q221.43 16.23 221.63 16.01Q221.83 15.78 221.83 15.54L221.83 15.54Q221.83 15.28 221.65 15.13Q221.48 14.98 221.16 14.98L221.16 14.98Q220.81 14.98 220.61 15.15Q220.41 15.33 220.41 15.60ZM239.42 22L236.69 13.60L239.14 13.60L240.83 18.96L242.60 13.60L244.79 13.60L246.48 19.01L248.25 13.60L250.51 13.60L247.79 22L245.25 22L243.64 16.89L241.96 22L239.42 22ZM257.40 22L255.03 22L255.03 13.60L257.40 13.60L257.40 22ZM268.97 22L262.58 22L262.58 13.60L264.96 13.60L264.96 20.11L268.97 20.11L268.97 22ZM279.77 22L273.38 22L273.38 13.60L275.76 13.60L275.76 20.11L279.77 20.11L279.77 22Z" fill="#FFFFFF" x="138.25"/></svg>